<svg id="Layer_1" data-name="Layer 1" xmlns="http://www.w3.org/2000/svg" viewBox="0 0 71.55 15.62"><defs><style>.cls-1{fill:#232323;}.cls-2{fill:#b82029;}</style></defs><path class="cls-1" d="M11.08,26.45,7.73,21.37,6.47,22.61v3.84H4.14V15.16H6.47v4.59l4.32-4.59h3.06L9.39,19.62,14,26.45Z" transform="translate(-4.14 -14.79)"/><path class="cls-1" d="M19.32,26.45a3.85,3.85,0,0,1-.14-.75,2.7,2.7,0,0,1-1,.71,4.06,4.06,0,0,1-1.5.26A3,3,0,0,1,14.53,26a2.2,2.2,0,0,1-.67-1.65,3.06,3.06,0,0,1,.29-1.44,2.09,2.09,0,0,1,.8-.84,3.6,3.6,0,0,1,1.22-.45q.7-.15,1.53-.27a3.07,3.07,0,0,0,1.13-.31.78.78,0,0,0-.1-1.28,2,2,0,0,0-1-.23,1.5,1.5,0,0,0-1.09.34,1.64,1.64,0,0,0-.42.91H14.13a4,4,0,0,1,.22-1.19,2.23,2.23,0,0,1,.63-.94,2.89,2.89,0,0,1,1.13-.6,5.9,5.9,0,0,1,1.7-.22,5.43,5.43,0,0,1,1.67.23,2.72,2.72,0,0,1,1.11.63,2.61,2.61,0,0,1,.6,1,5,5,0,0,1,.19,1.4v5.29Zm-.15-4.1a1.09,1.09,0,0,1-.5.27,6.47,6.47,0,0,1-.93.22,3.26,3.26,0,0,0-1.31.48,1,1,0,0,0-.36.83c0,.63.36.94,1.07.94a2,2,0,0,0,.79-.15,1.68,1.68,0,0,0,.63-.39A1.86,1.86,0,0,0,19,24a1.6,1.6,0,0,0,.16-.71Z" transform="translate(-4.14 -14.79)"/><path class="cls-1" d="M22.35,26.45V15h2.21V26.45Z" transform="translate(-4.14 -14.79)"/><path class="cls-1" d="M30.81,25.34a1.71,1.71,0,0,1-.86.88,3,3,0,0,1-1.4.31,3.43,3.43,0,0,1-1.22-.21,2.63,2.63,0,0,1-1-.61,2.84,2.84,0,0,1-.64-.95,3.31,3.31,0,0,1-.23-1.25V18.09H27.7v5.09c0,1.05.47,1.57,1.41,1.57a1.73,1.73,0,0,0,1.23-.44,1.47,1.47,0,0,0,.47-1.13V18.09H33v8.58a3.94,3.94,0,0,1-.3,1.58,3.19,3.19,0,0,1-.81,1.17,3.64,3.64,0,0,1-1.23.74,4.37,4.37,0,0,1-1.5.25,3.69,3.69,0,0,1-2.77-.94,3.49,3.49,0,0,1-.92-2.56h2.06A1.55,1.55,0,0,0,28,28.08a1.8,1.8,0,0,0,1.3.43,1.41,1.41,0,0,0,.58-.13,1.68,1.68,0,0,0,.48-.36,1.47,1.47,0,0,0,.34-.57,2,2,0,0,0,.13-.75Z" transform="translate(-4.14 -14.79)"/><path class="cls-1" d="M39.26,26.45a3.85,3.85,0,0,1-.14-.75,2.7,2.7,0,0,1-1,.71,4.06,4.06,0,0,1-1.5.26A2.94,2.94,0,0,1,34.48,26a2.17,2.17,0,0,1-.68-1.65,3.06,3.06,0,0,1,.29-1.44,2.16,2.16,0,0,1,.8-.84,3.6,3.6,0,0,1,1.22-.45c.47-.1,1-.19,1.54-.27a3.07,3.07,0,0,0,1.12-.31.78.78,0,0,0-.1-1.28,2,2,0,0,0-1-.23,1.52,1.52,0,0,0-1.1.34,1.64,1.64,0,0,0-.42.91H34.08a3.71,3.71,0,0,1,.21-1.19,2.23,2.23,0,0,1,.63-.94,2.89,2.89,0,0,1,1.13-.6,5.9,5.9,0,0,1,1.7-.22,5.43,5.43,0,0,1,1.67.23,2.72,2.72,0,0,1,1.11.63,2.5,2.5,0,0,1,.6,1,5,5,0,0,1,.19,1.4v5.29Zm-.15-4.1a1.09,1.09,0,0,1-.5.27,6.47,6.47,0,0,1-.93.22,3.26,3.26,0,0,0-1.31.48,1,1,0,0,0-.36.83c0,.63.36.94,1.07.94a2.11,2.11,0,0,0,.8-.15,1.72,1.72,0,0,0,.62-.39,1.86,1.86,0,0,0,.43-.57,1.6,1.6,0,0,0,.16-.71Z" transform="translate(-4.14 -14.79)"/><path class="cls-1" d="M47.64,26.45V21.38a2,2,0,0,0-.32-1.31,1.53,1.53,0,0,0-1.11-.34c-1.14,0-1.71.64-1.71,1.93v4.79H42.29V18.09h2.1v1.22a2.65,2.65,0,0,1,1-1.08,3.41,3.41,0,0,1,1.67-.37,3.3,3.3,0,0,1,1.1.18,2.41,2.41,0,0,1,.88.54,2.82,2.82,0,0,1,.58.87,3.21,3.21,0,0,1,.21,1.2v5.8Z" transform="translate(-4.14 -14.79)"/><path class="cls-2" d="M59.2,26.45l-.05-1.12a2.75,2.75,0,0,1-1.31,1.11,5,5,0,0,1-2.07.4,4.48,4.48,0,0,1-2.12-.5A5.09,5.09,0,0,1,52,25a6,6,0,0,1-1-1.94,7.24,7.24,0,0,1-.36-2.27A7.45,7.45,0,0,1,51,18.45a5.46,5.46,0,0,1,1.05-1.91,5,5,0,0,1,1.73-1.29,5.9,5.9,0,0,1,2.42-.46,5.78,5.78,0,0,1,1.88.29,5.06,5.06,0,0,1,1.53.8,4.19,4.19,0,0,1,1.05,1.21,3.74,3.74,0,0,1,.47,1.56H58.76a2,2,0,0,0-.27-.74,2.33,2.33,0,0,0-.56-.61,2.73,2.73,0,0,0-.8-.4,2.62,2.62,0,0,0-.92-.16,2.82,2.82,0,0,0-2.29,1.06,4.84,4.84,0,0,0-.86,3.09,5.66,5.66,0,0,0,.18,1.4,4.22,4.22,0,0,0,.56,1.28,3,3,0,0,0,1,.92,2.69,2.69,0,0,0,1.41.36,2.81,2.81,0,0,0,2-.76,2.65,2.65,0,0,0,.58-.83,2.24,2.24,0,0,0,.22-1h-2.5V20.38h4.71v6.07Z" transform="translate(-4.14 -14.79)"/><path class="cls-2" d="M67.26,26.45a3.23,3.23,0,0,1-.14-.75,2.67,2.67,0,0,1-1,.71,4,4,0,0,1-1.49.26A3,3,0,0,1,62.47,26a2.16,2.16,0,0,1-.67-1.65,3.06,3.06,0,0,1,.29-1.44,2.09,2.09,0,0,1,.8-.84,3.54,3.54,0,0,1,1.21-.45c.48-.1,1-.19,1.54-.27a2.94,2.94,0,0,0,1.12-.31.7.7,0,0,0,.29-.64.71.71,0,0,0-.38-.64,2,2,0,0,0-1-.23,1.5,1.5,0,0,0-1.09.34,1.64,1.64,0,0,0-.42.91H62.07a3.7,3.7,0,0,1,.22-1.19,2.23,2.23,0,0,1,.63-.94,2.85,2.85,0,0,1,1.12-.6,6,6,0,0,1,1.71-.22,5.43,5.43,0,0,1,1.67.23,2.61,2.61,0,0,1,1.1.63,2.52,2.52,0,0,1,.61,1,5,5,0,0,1,.19,1.4v5.29Zm-.15-4.1a1.09,1.09,0,0,1-.5.27,6.82,6.82,0,0,1-.93.22,3.26,3.26,0,0,0-1.31.48,1,1,0,0,0-.36.83c0,.63.36.94,1.07.94a2,2,0,0,0,.79-.15,1.68,1.68,0,0,0,.63-.39,1.86,1.86,0,0,0,.43-.57,1.75,1.75,0,0,0,.16-.71Z" transform="translate(-4.14 -14.79)"/><path class="cls-2" d="M70.28,26.45V15h2.21V26.45Z" transform="translate(-4.14 -14.79)"/><path class="cls-2" d="M73.48,17.08V15h2.21v2Zm0,9.37V18.09h2.21v8.36Z" transform="translate(-4.14 -14.79)"/></svg>